<svg version="1.1" id="Layer_1" xmlns="http://www.w3.org/2000/svg" xmlns:xlink="http://www.w3.org/1999/xlink" x="0px" y="0px"
	 width="100%" viewBox="0 0 560 553" enable-background="new 0 0 560 553" xml:space="preserve">
<path fill="#FFFFFF" opacity="1.000000" stroke="none" 
	d="
M312.000000,554.000000 
	C208.023239,554.000000 104.546463,554.000000 1.034849,554.000000 
	C1.034849,369.731293 1.034849,185.462555 1.034849,1.096915 
	C187.560120,1.096915 374.120300,1.096915 560.840210,1.096915 
	C560.840210,185.333221 560.840210,369.666595 560.840210,554.000000 
	C478.129181,554.000000 395.314606,554.000000 312.000000,554.000000 
M370.902405,424.220154 
	C372.818176,423.134003 374.844696,422.203766 376.630737,420.934967 
	C384.895294,415.063751 393.494507,409.569641 401.186737,403.016541 
	C407.261871,397.841095 412.073639,391.207336 417.658295,385.425842 
	C426.672211,376.094147 433.515808,365.209717 439.424805,353.853790 
	C446.480316,340.294403 452.260895,326.083252 454.775574,310.872284 
	C456.478455,300.571747 458.009766,290.191223 458.667694,279.786407 
	C459.163330,271.948029 458.134979,264.014984 457.815186,256.122894 
	C457.307190,243.586090 454.782227,231.473969 450.892914,219.540894 
	C446.379303,205.692307 441.114624,192.202774 432.882111,180.138992 
	C427.737335,172.599808 422.015076,165.435425 416.265472,158.334808 
	C412.152924,153.255981 408.074951,147.941345 403.075745,143.834564 
	C394.510864,136.798599 385.458740,130.288116 376.188446,124.200806 
	C369.249176,119.644157 361.891937,115.522400 354.268677,112.265091 
	C346.487122,108.940125 338.276520,106.385201 330.029968,104.443352 
	C320.278076,102.147026 310.337219,99.920776 300.386108,99.389145 
	C288.055786,98.730408 275.589355,99.339729 263.261017,100.359650 
	C254.613205,101.075081 245.996735,102.985435 237.545502,105.083900 
	C222.062378,108.928406 207.340149,115.088776 194.034119,123.765816 
	C183.453384,130.665649 173.733368,138.959152 164.048721,147.128830 
	C159.074402,151.325012 154.832809,156.450241 150.592789,161.438446 
	C146.837097,165.856888 142.976730,170.349762 140.160858,175.369751 
	C134.251373,185.904831 128.768707,196.697571 123.527870,207.585297 
	C115.306831,224.664322 112.276642,243.134003 111.389786,261.765839 
	C110.800529,274.145599 112.282219,286.651154 113.232819,299.070099 
	C114.458435,315.081848 119.891891,329.996735 126.031685,344.661865 
	C132.859039,360.969299 143.028549,375.289581 154.406540,388.523743 
	C162.117020,397.492096 171.162140,405.610352 180.692810,412.641571 
	C192.787048,421.564117 206.110901,428.595062 220.137299,434.447784 
	C240.752472,443.049866 262.316406,445.805054 284.232941,446.691254 
	C292.138397,447.010956 300.185089,445.926971 308.046722,444.706726 
	C317.601837,443.223724 327.044159,440.988129 336.508667,438.954193 
	C348.663696,436.342010 359.334534,430.170135 370.902405,424.220154 
M248.286636,42.113327 
	C237.722626,44.366692 227.024628,46.131031 216.624023,48.980793 
	C198.092834,54.058315 180.534500,61.756630 164.398590,72.155861 
	C152.213501,80.008881 140.068802,88.207916 129.190216,97.721283 
	C119.261688,106.403801 110.473602,116.596626 102.260178,126.976273 
	C94.017731,137.392593 86.310722,148.414734 79.805992,159.979584 
	C70.961739,175.703857 64.692772,192.603714 59.615608,210.033707 
	C53.967915,229.422348 52.352859,249.219147 51.252792,269.131897 
	C50.883152,275.822845 51.822216,282.587036 52.179592,289.316895 
	C52.465733,294.705109 52.176449,300.207947 53.190254,305.457581 
	C56.142067,320.742615 59.251465,335.950195 64.442307,350.771820 
	C69.860954,366.243866 77.022972,380.818085 85.216934,394.799622 
	C93.408958,408.777863 103.274437,421.733398 115.006989,433.131866 
	C124.596939,442.448761 133.609741,452.392853 144.833298,459.875519 
	C151.572205,464.368347 158.138382,469.175140 165.163254,473.170868 
	C174.982025,478.755676 184.828506,484.530579 195.264877,488.727966 
	C207.243759,493.545685 219.828995,496.903961 232.257614,500.530243 
	C236.881699,501.879425 241.807800,502.193481 246.596176,502.979553 
	C246.732056,502.483063 246.867920,501.986542 247.003799,501.490051 
	C245.797775,499.957642 244.806732,498.172455 243.350571,496.934235 
	C234.502670,489.410645 225.412186,482.168091 216.667160,474.528961 
	C207.132950,466.200439 197.901886,457.525482 188.504059,449.039825 
	C185.864655,446.656586 183.227402,444.240906 180.375748,442.128143 
	C170.259140,434.632843 159.513809,427.879211 150.045898,419.649109 
	C142.451584,413.047638 135.774338,405.150604 129.751053,397.040558 
	C121.379433,385.768677 112.840988,374.349030 106.516464,361.903778 
	C100.007744,349.096100 94.949448,335.272797 91.329872,321.354706 
	C87.797218,307.770813 86.405327,293.553101 85.015587,279.520325 
	C84.277359,272.066132 85.208260,264.380463 85.976616,256.859650 
	C86.971420,247.122192 87.602692,237.192017 90.095856,227.797379 
	C94.527855,211.096893 100.194427,194.847336 108.571541,179.435898 
	C116.825333,164.251343 126.480049,150.180283 137.937073,137.517715 
	C146.070435,128.528534 155.717102,120.799873 165.243118,113.204430 
	C180.308899,101.191910 197.021515,91.649582 215.169388,85.271896 
	C237.026917,77.590546 259.489319,72.208122 282.968079,72.844292 
	C289.114197,73.010818 295.282654,72.720100 301.409424,73.120331 
	C306.602661,73.459587 311.750488,74.492981 316.918427,75.219208 
	C317.189392,74.706970 317.460388,74.194725 317.731384,73.682487 
	C312.735229,68.886398 307.891998,63.917156 302.705536,59.336559 
	C295.674744,53.127041 288.420227,47.167347 281.161682,41.222591 
	C279.938965,40.221169 278.170837,39.181595 276.724274,39.272034 
	C267.470917,39.850533 258.236969,40.739918 248.286636,42.113327 
M286.269623,501.322693 
	C289.330414,502.823944 292.474060,505.749908 295.437561,505.577637 
	C307.685211,504.865601 320.090118,504.204590 332.035187,501.647064 
	C345.487823,498.766724 358.726593,494.455048 371.645752,489.655273 
	C381.604279,485.955475 390.944366,480.578583 400.525024,475.877289 
	C414.921753,468.812714 427.698486,459.172668 439.485229,448.601929 
	C450.184845,439.006226 459.791748,428.033051 468.891327,416.861542 
	C476.447021,407.585480 483.439697,397.611572 489.126892,387.105103 
	C499.361023,368.198639 507.481537,348.435760 512.382629,327.220703 
	C516.498779,309.403656 517.971436,291.472839 518.680115,273.422455 
	C519.036438,264.345428 517.771667,255.164719 516.754578,246.085266 
	C515.777283,237.360123 515.007446,228.472275 512.661316,220.070602 
	C508.503510,205.180786 504.395752,190.076111 498.079163,176.046387 
	C491.746246,161.980453 483.076752,148.904510 474.772430,135.812637 
	C470.175171,128.565048 464.774872,121.635994 458.761749,115.522064 
	C449.702087,106.310547 440.207153,97.414574 430.118011,89.360573 
	C420.501373,81.683769 410.189240,74.749947 399.614319,68.442719 
	C391.252686,63.455608 382.291138,59.181950 373.127045,55.901447 
	C359.486969,51.018658 345.467133,47.173073 331.522888,43.187054 
	C329.203064,42.523926 326.446228,43.389641 323.891327,43.548866 
	C328.158997,48.434864 332.381012,51.860119 336.418793,55.490299 
	C342.937256,61.350780 349.193481,67.508980 355.817627,73.244385 
	C364.595581,80.844635 373.570129,88.221169 382.555420,95.577576 
	C390.547272,102.120651 398.361145,108.945053 406.807220,114.853920 
	C418.659149,123.145515 428.788483,133.187027 437.928467,144.181885 
	C444.370392,151.931213 450.193542,160.285751 455.502441,168.859573 
	C460.407196,176.780716 464.960846,185.073944 468.402344,193.708237 
	C472.948212,205.113464 477.025848,216.827362 479.880035,228.749649 
	C482.597900,240.102539 484.242706,251.845291 484.988495,263.504333 
	C485.967438,278.808441 484.086792,293.991455 481.247162,309.157471 
	C477.698883,328.108185 471.701721,346.168762 462.995880,363.161926 
	C455.552002,377.691803 446.963959,391.703369 435.163452,403.381226 
	C427.376831,411.086884 420.523315,419.934692 411.950867,426.596924 
	C401.029938,435.084259 388.988129,442.203979 377.075592,449.320892 
	C363.611694,457.364777 348.907257,462.602264 333.623749,466.019958 
	C324.742249,468.006042 315.746399,469.499329 306.776001,471.065338 
	C292.554230,473.548126 278.315247,473.069183 264.071167,471.120270 
	C260.507660,470.632690 256.899231,470.473572 251.990631,470.049286 
	C254.140549,472.840118 255.248215,474.895355 256.899780,476.320068 
	C266.448425,484.557007 276.125458,492.645142 286.269623,501.322693 
z"/>
<path fill="#010101" opacity="1.000000" stroke="none" 
	d="
M370.586792,424.435608 
	C359.334534,430.170135 348.663696,436.342010 336.508667,438.954193 
	C327.044159,440.988129 317.601837,443.223724 308.046722,444.706726 
	C300.185089,445.926971 292.138397,447.010956 284.232941,446.691254 
	C262.316406,445.805054 240.752472,443.049866 220.137299,434.447784 
	C206.110901,428.595062 192.787048,421.564117 180.692810,412.641571 
	C171.162140,405.610352 162.117020,397.492096 154.406540,388.523743 
	C143.028549,375.289581 132.859039,360.969299 126.031685,344.661865 
	C119.891891,329.996735 114.458435,315.081848 113.232819,299.070099 
	C112.282219,286.651154 110.800529,274.145599 111.389786,261.765839 
	C112.276642,243.134003 115.306831,224.664322 123.527870,207.585297 
	C128.768707,196.697571 134.251373,185.904831 140.160858,175.369751 
	C142.976730,170.349762 146.837097,165.856888 150.592789,161.438446 
	C154.832809,156.450241 159.074402,151.325012 164.048721,147.128830 
	C173.733368,138.959152 183.453384,130.665649 194.034119,123.765816 
	C207.340149,115.088776 222.062378,108.928406 237.545502,105.083900 
	C245.996735,102.985435 254.613205,101.075081 263.261017,100.359650 
	C275.589355,99.339729 288.055786,98.730408 300.386108,99.389145 
	C310.337219,99.920776 320.278076,102.147026 330.029968,104.443352 
	C338.276520,106.385201 346.487122,108.940125 354.268677,112.265091 
	C361.891937,115.522400 369.249176,119.644157 376.188446,124.200806 
	C385.458740,130.288116 394.510864,136.798599 403.075745,143.834564 
	C408.074951,147.941345 412.152924,153.255981 416.265472,158.334808 
	C422.015076,165.435425 427.737335,172.599808 432.882111,180.138992 
	C441.114624,192.202774 446.379303,205.692307 450.892914,219.540894 
	C454.782227,231.473969 457.307190,243.586090 457.815186,256.122894 
	C458.134979,264.014984 459.163330,271.948029 458.667694,279.786407 
	C458.009766,290.191223 456.478455,300.571747 454.775574,310.872284 
	C452.260895,326.083252 446.480316,340.294403 439.424805,353.853790 
	C433.515808,365.209717 426.672211,376.094147 417.658295,385.425842 
	C412.073639,391.207336 407.261871,397.841095 401.186737,403.016541 
	C393.494507,409.569641 384.895294,415.063751 376.630737,420.934967 
	C374.844696,422.203766 372.818176,423.134003 370.586792,424.435608 
z"/>
<path fill="#040404" opacity="1.000000" stroke="none" 
	d="
M248.641632,41.820190 
	C258.236969,40.739918 267.470917,39.850533 276.724274,39.272034 
	C278.170837,39.181595 279.938965,40.221169 281.161682,41.222591 
	C288.420227,47.167347 295.674744,53.127041 302.705536,59.336559 
	C307.891998,63.917156 312.735229,68.886398 317.731384,73.682487 
	C317.460388,74.194725 317.189392,74.706970 316.918427,75.219208 
	C311.750488,74.492981 306.602661,73.459587 301.409424,73.120331 
	C295.282654,72.720100 289.114197,73.010818 282.968079,72.844292 
	C259.489319,72.208122 237.026917,77.590546 215.169388,85.271896 
	C197.021515,91.649582 180.308899,101.191910 165.243118,113.204430 
	C155.717102,120.799873 146.070435,128.528534 137.937073,137.517715 
	C126.480049,150.180283 116.825333,164.251343 108.571541,179.435898 
	C100.194427,194.847336 94.527855,211.096893 90.095856,227.797379 
	C87.602692,237.192017 86.971420,247.122192 85.976616,256.859650 
	C85.208260,264.380463 84.277359,272.066132 85.015587,279.520325 
	C86.405327,293.553101 87.797218,307.770813 91.329872,321.354706 
	C94.949448,335.272797 100.007744,349.096100 106.516464,361.903778 
	C112.840988,374.349030 121.379433,385.768677 129.751053,397.040558 
	C135.774338,405.150604 142.451584,413.047638 150.045898,419.649109 
	C159.513809,427.879211 170.259140,434.632843 180.375748,442.128143 
	C183.227402,444.240906 185.864655,446.656586 188.504059,449.039825 
	C197.901886,457.525482 207.132950,466.200439 216.667160,474.528961 
	C225.412186,482.168091 234.502670,489.410645 243.350571,496.934235 
	C244.806732,498.172455 245.797775,499.957642 247.003799,501.490051 
	C246.867920,501.986542 246.732056,502.483063 246.596176,502.979553 
	C241.807800,502.193481 236.881699,501.879425 232.257614,500.530243 
	C219.828995,496.903961 207.243759,493.545685 195.264877,488.727966 
	C184.828506,484.530579 174.982025,478.755676 165.163254,473.170868 
	C158.138382,469.175140 151.572205,464.368347 144.833298,459.875519 
	C133.609741,452.392853 124.596939,442.448761 115.006989,433.131866 
	C103.274437,421.733398 93.408958,408.777863 85.216934,394.799622 
	C77.022972,380.818085 69.860954,366.243866 64.442307,350.771820 
	C59.251465,335.950195 56.142067,320.742615 53.190254,305.457581 
	C52.176449,300.207947 52.465733,294.705109 52.179592,289.316895 
	C51.822216,282.587036 50.883152,275.822845 51.252792,269.131897 
	C52.352859,249.219147 53.967915,229.422348 59.615608,210.033707 
	C64.692772,192.603714 70.961739,175.703857 79.805992,159.979584 
	C86.310722,148.414734 94.017731,137.392593 102.260178,126.976273 
	C110.473602,116.596626 119.261688,106.403801 129.190216,97.721283 
	C140.068802,88.207916 152.213501,80.008881 164.398590,72.155861 
	C180.534500,61.756630 198.092834,54.058315 216.624023,48.980793 
	C227.024628,46.131031 237.722626,44.366692 248.641632,41.820190 
z"/>
<path fill="#040404" opacity="1.000000" stroke="none" 
	d="
M286.014343,501.053162 
	C276.125458,492.645142 266.448425,484.557007 256.899780,476.320068 
	C255.248215,474.895355 254.140549,472.840118 251.990631,470.049286 
	C256.899231,470.473572 260.507660,470.632690 264.071167,471.120270 
	C278.315247,473.069183 292.554230,473.548126 306.776001,471.065338 
	C315.746399,469.499329 324.742249,468.006042 333.623749,466.019958 
	C348.907257,462.602264 363.611694,457.364777 377.075592,449.320892 
	C388.988129,442.203979 401.029938,435.084259 411.950867,426.596924 
	C420.523315,419.934692 427.376831,411.086884 435.163452,403.381226 
	C446.963959,391.703369 455.552002,377.691803 462.995880,363.161926 
	C471.701721,346.168762 477.698883,328.108185 481.247162,309.157471 
	C484.086792,293.991455 485.967438,278.808441 484.988495,263.504333 
	C484.242706,251.845291 482.597900,240.102539 479.880035,228.749649 
	C477.025848,216.827362 472.948212,205.113464 468.402344,193.708237 
	C464.960846,185.073944 460.407196,176.780716 455.502441,168.859573 
	C450.193542,160.285751 444.370392,151.931213 437.928467,144.181885 
	C428.788483,133.187027 418.659149,123.145515 406.807220,114.853920 
	C398.361145,108.945053 390.547272,102.120651 382.555420,95.577576 
	C373.570129,88.221169 364.595581,80.844635 355.817627,73.244385 
	C349.193481,67.508980 342.937256,61.350780 336.418793,55.490299 
	C332.381012,51.860119 328.158997,48.434864 323.891327,43.548866 
	C326.446228,43.389641 329.203064,42.523926 331.522888,43.187054 
	C345.467133,47.173073 359.486969,51.018658 373.127045,55.901447 
	C382.291138,59.181950 391.252686,63.455608 399.614319,68.442719 
	C410.189240,74.749947 420.501373,81.683769 430.118011,89.360573 
	C440.207153,97.414574 449.702087,106.310547 458.761749,115.522064 
	C464.774872,121.635994 470.175171,128.565048 474.772430,135.812637 
	C483.076752,148.904510 491.746246,161.980453 498.079163,176.046387 
	C504.395752,190.076111 508.503510,205.180786 512.661316,220.070602 
	C515.007446,228.472275 515.777283,237.360123 516.754578,246.085266 
	C517.771667,255.164719 519.036438,264.345428 518.680115,273.422455 
	C517.971436,291.472839 516.498779,309.403656 512.382629,327.220703 
	C507.481537,348.435760 499.361023,368.198639 489.126892,387.105103 
	C483.439697,397.611572 476.447021,407.585480 468.891327,416.861542 
	C459.791748,428.033051 450.184845,439.006226 439.485229,448.601929 
	C427.698486,459.172668 414.921753,468.812714 400.525024,475.877289 
	C390.944366,480.578583 381.604279,485.955475 371.645752,489.655273 
	C358.726593,494.455048 345.487823,498.766724 332.035187,501.647064 
	C320.090118,504.204590 307.685211,504.865601 295.437561,505.577637 
	C292.474060,505.749908 289.330414,502.823944 286.014343,501.053162 
z"/>
</svg>